<svg width="413" height="136" viewBox="0 0 413 136" fill="none" xmlns="http://www.w3.org/2000/svg">
<path fill-rule="evenodd" clip-rule="evenodd" d="M51.9183 1.22236C31.4579 6.0244 10.5939 25.3763 3.51739 46.1186C-0.240925 57.1337 -1.07231 76.0799 1.7705 85.9167C7.13795 104.491 20.4402 120.704 36.89 128.721C48.0808 134.175 54.4661 135.492 66.837 134.901C76.398 134.444 78.7861 133.82 88.1556 129.326L98.7077 124.265V105.793V87.3204L93.6462 94.8969C85.7005 106.789 74.4731 113.197 61.6097 113.179C39.8925 113.15 21.9079 93.0485 21.9079 68.8043C21.9079 41.8161 41.5711 21.8001 68.0841 21.8001C79.0079 21.8001 87.0805 23.8922 94.1156 28.5444L99.0393 31.8014L106.425 24.4186C113.804 17.0431 113.809 17.0322 111.466 14.4429C108.241 10.8813 90.9655 2.81247 83.1052 1.19554C75.4947 -0.368988 58.6401 -0.354363 51.9183 1.22236ZM58.8571 43.0456C44.4553 49.7473 38.6661 67.7893 46.1876 82.5257C48.4611 86.9805 53.9066 92.4721 56.0497 92.4721C56.5446 92.4721 57.3089 90.2216 57.749 87.4703C59.9738 73.5625 71.1634 62.2745 87.4303 57.5297C91.6189 56.3076 95.0481 54.6931 95.0493 53.94C95.0493 53.1882 92.6393 50.3516 89.6929 47.6356C80.9401 39.5729 69.8627 37.9231 58.8571 43.0456ZM130.403 42.6167C118.991 47.7879 113.32 56.9668 113.363 70.1946C113.419 87.6713 124.935 99.7831 141.499 99.7831C150.365 99.7831 156.633 97.5995 162.244 92.5562L167.083 88.2075L162.654 85.2356C159.653 83.2202 157.727 82.6317 156.676 83.4079C147.095 90.4812 142.855 91.3438 134.916 87.8334C122.694 82.4282 120.425 63.2407 131.023 54.9075C138.419 49.0929 147.956 49.1794 154.523 55.122C157.271 57.6077 157.368 57.6113 161.532 55.3705C163.855 54.1204 165.755 52.4011 165.755 51.5494C165.755 49.1721 157.634 43.0237 152.441 41.4677C145.425 39.367 136.553 39.83 130.403 42.6167ZM311.302 42.4034C302.256 46.5085 298.881 58.0817 304.254 66.5635C306.361 69.89 313.029 73.3359 321.183 75.3135C329.189 77.2533 332.764 79.6805 332.764 83.1727C332.764 87.5897 329.089 90.0352 322.45 90.0352C317.323 90.0352 316.088 89.4978 312.517 85.7132C308.527 81.4851 308.333 81.4229 303.561 82.8522L298.683 84.3132L301.161 88.718C305.219 95.9363 311.018 99.0836 321.074 99.5284C331.295 99.9792 336.699 97.7665 340.968 91.378C346.758 82.717 342.958 71.8578 332.735 67.8466C329.734 66.6683 324.918 65.1196 322.033 64.4032C316.455 63.0165 312.04 59.539 312.04 56.5269C312.04 52.9848 316.683 49.8252 321.887 49.8252C325.686 49.8252 327.642 50.6136 330.194 53.1761C333.196 56.1894 333.983 56.4136 338.024 55.3986C343.381 54.0522 343.606 52.5254 339.222 47.3164C333.053 39.9884 321.21 37.9048 311.302 42.4034ZM368.639 42.9786C353.488 50.0311 347.023 68.8884 354.642 83.816C365.942 105.955 400.767 104.725 410.359 81.8494C413.138 75.2172 412.464 63.415 408.895 56.2564C401.722 41.8685 383.756 35.943 368.639 42.9786ZM176.727 69.9302V98.5646H193.084C202.08 98.5646 210.309 98.8972 211.369 99.3042C212.958 99.9134 213.298 99.041 213.298 94.3523V88.6595L200.495 89.0433L187.693 89.4259L187.695 65.3609L187.698 41.2958H182.212H176.727V69.9302ZM223.05 69.8071V98.3197L228.536 98.7559L234.022 99.1909V70.2434V41.2958H228.536H223.05V69.8071ZM247.43 70.141L247.427 99.1738H252.611H257.793L258.403 89.4259L259.012 79.6781L269.597 79.0688C280.933 78.4169 284.335 76.8707 289.413 70.0667C292.837 65.4779 292.803 54.8332 289.348 50.2078C283.727 42.6825 281.542 41.938 263.804 41.5066L247.431 41.107L247.43 70.141ZM392.283 53.1176C401.036 59.5962 403.675 71.0439 398.51 80.1216C394.797 86.6502 390.592 89.2346 382.8 89.7781C377.231 90.168 375.3 89.7476 371.839 87.3972C359.235 78.8349 359.772 59.3014 372.807 52.2147C378.366 49.1916 387.555 49.6181 392.283 53.1176ZM278.74 53.7902C279.952 55.0026 280.833 57.7515 280.833 60.3225C280.833 67.0278 277.257 69.321 266.801 69.321H258.403V60.0495V50.7769L267.525 51.2374C274.058 51.5677 277.24 52.2927 278.74 53.7902Z" fill="#B13BFF"/>
</svg>
